<?xml version="1.0" standalone="no"?>
<!DOCTYPE svg PUBLIC "-//W3C//DTD SVG 20010904//EN"
 "http://www.w3.org/TR/2001/REC-SVG-20010904/DTD/svg10.dtd">
<svg version="1.0" xmlns="http://www.w3.org/2000/svg"
 width="1010.000000pt" height="676.000000pt" viewBox="0 0 1010.000000 676.000000"
 preserveAspectRatio="xMidYMid meet">
<metadata>
Created by potrace 1.15, written by Peter Selinger 2001-2017
</metadata>
<g transform="translate(0.000000,676.000000) scale(0.100000,-0.100000)"
fill="#000000" stroke="none">
<path d="M5875 6683 c-30 -7 -2720 -722 -2795 -743 -58 -16 -936 -250 -1200
-320 -714 -188 -1443 -385 -1475 -399 -45 -20 -98 -70 -123 -116 -10 -19 -16
-55 -17 -100 0 -58 4 -76 25 -107 15 -22 35 -39 53 -42 39 -8 65 -40 121 -149
32 -64 51 -115 56 -154 4 -32 13 -71 21 -88 11 -25 14 -385 19 -2096 4 -1136
10 -2071 14 -2078 5 -8 12 -9 19 -2 7 5 41 19 77 32 61 21 85 22 360 26 162 2
305 6 316 8 33 7 42 47 49 215 3 85 11 175 19 199 14 48 46 87 86 105 18 8
551 12 2020 17 2163 6 2044 2 2254 59 293 78 475 242 560 503 61 188 61 184
61 1092 0 907 1 885 -61 1145 -31 128 -35 203 -12 227 16 15 16 18 -4 47 -62
90 -161 170 -282 226 -101 47 -187 73 -341 102 l-120 22 -1992 3 c-1210 2
-2002 7 -2017 13 -29 11 -26 43 8 65 27 18 254 112 328 135 31 11 88 33 126
49 102 45 580 171 722 191 80 11 202 38 315 71 112 31 131 37 305 84 373 102
469 130 540 160 67 29 269 89 483 144 43 11 124 27 180 36 130 19 133 20 707
184 212 60 412 122 445 136 33 15 107 42 165 61 186 60 199 86 178 343 -9 113
-11 200 -6 254 5 45 12 131 17 190 5 59 15 114 21 123 38 44 -83 136 -174 133
-17 -1 -40 -3 -51 -6z m75 -168 c0 -8 -22 -58 -49 -112 -44 -86 -160 -331
-268 -566 l-36 -77 -81 -25 c-87 -26 -214 -63 -596 -175 -135 -39 -274 -81
-309 -93 -45 -15 -66 -18 -68 -10 -3 7 -18 9 -41 6 -51 -7 -68 14 -65 82 3 63
9 78 148 358 98 199 113 222 167 272 95 88 176 120 603 240 209 58 385 108
390 110 6 2 54 4 108 4 79 1 97 -2 97 -14z m-1836 -471 c56 -8 59 -24 16 -88
-17 -24 -78 -138 -137 -253 -238 -465 -228 -447 -265 -460 -18 -7 -213 -62
-433 -123 -220 -61 -438 -123 -484 -137 -53 -17 -86 -23 -88 -16 -2 6 -22 8
-48 5 -42 -4 -45 -3 -55 24 -17 43 -2 120 39 204 127 258 216 425 242 455 33
37 139 110 201 139 38 17 147 50 353 106 66 18 165 45 220 61 146 40 296 78
330 82 54 7 62 7 109 1z m-1870 -514 c14 -5 26 -14 26 -20 0 -6 -16 -36 -35
-66 -20 -31 -109 -203 -199 -382 l-164 -327 -458 -134 c-253 -74 -477 -140
-499 -147 -74 -23 -75 -23 -96 30 -10 28 -21 88 -25 135 l-6 86 111 222 c89
179 118 228 152 256 69 60 184 113 334 156 709 201 787 219 859 191z m2991
-1848 c161 -45 248 -104 291 -197 31 -65 32 -137 3 -166 -21 -21 -21 -21 -2
-92 16 -66 18 -123 18 -677 0 -660 -1 -669 -60 -793 -54 -114 -155 -188 -303
-221 -96 -22 -318 -32 -338 -15 -12 10 -14 104 -14 608 l0 596 23 37 c12 21
43 59 69 86 25 26 48 56 50 67 3 20 -7 20 -1412 20 l-1415 0 -3 -220 c-2 -121
0 -289 3 -372 l7 -153 998 0 c550 0 1000 -3 1002 -7 2 -5 1 -150 -2 -323 l-5
-315 -1295 -5 c-1075 -4 -1297 -3 -1307 8 -9 11 -18 12 -46 1 -45 -16 -65 -7
-82 36 -13 29 -15 175 -15 982 0 915 3 995 31 1063 12 31 52 61 93 71 17 4
841 6 1831 5 l1800 -2 80 -22z"/>
<path d="M9360 4168 c-447 -260 -1625 -944 -2340 -1358 -401 -232 -440 -256
-440 -270 0 -21 72 -40 157 -40 115 0 214 -15 255 -39 18 -10 159 -91 313
-181 154 -89 327 -189 385 -222 58 -34 125 -73 150 -89 45 -27 396 -231 580
-337 52 -30 109 -62 125 -72 359 -208 598 -347 630 -365 22 -13 81 -47 130
-76 161 -94 190 -109 211 -109 51 0 49 -75 54 1529 l5 1496 24 50 c14 28 46
84 73 126 37 59 48 85 48 117 0 23 -3 42 -7 41 -5 0 -163 -91 -353 -201z
m-173 -712 c35 -41 27 -104 -20 -154 l-22 -24 -3 -779 c-2 -545 -6 -779 -13
-779 -10 0 -45 19 -214 115 -34 20 -149 86 -250 145 -16 10 -59 34 -95 55 -36
21 -78 45 -95 55 -327 190 -600 347 -637 366 -40 20 -56 23 -107 18 -57 -6
-61 -5 -90 24 -38 37 -42 94 -11 156 21 44 41 59 190 144 52 30 109 62 125 72
31 18 583 338 755 438 293 170 326 184 414 178 39 -3 55 -9 73 -30z"/>
</g>
</svg>
